<?xml version="1.0" encoding="UTF-8"?>
<svg id="OBJECTS" xmlns="http://www.w3.org/2000/svg" xmlns:xlink="http://www.w3.org/1999/xlink" viewBox="0 0 282.08 273.07">
  <defs>
    <style>
      .cls-1 {
        fill: url(#linear-gradient);
      }

      .cls-1, .cls-2 {
        stroke-width: 0px;
      }
    </style>
    <linearGradient id="linear-gradient" x1="141.04" y1="-22.64" x2="141.04" y2="96.85" gradientUnits="userSpaceOnUse">
      <stop offset="0" stop-color="#4274fd"/>
      <stop offset="1" stop-color="#011d69"/>
    </linearGradient>
  </defs>
  <path class="cls-1" d="M208.43,15.2l-7.29-2.91s-14.55,19.66-36.63,17.11h0c-2.21-.48-4.45-.9-6.71-1.25l.57-.29s-11.73-7.59-12.59-27.86h-9.49c-.86,20.27-12.59,27.86-12.59,27.86l.57.29c-2.26.35-4.5.77-6.71,1.26h0c-22.08,2.54-36.63-17.12-36.63-17.12l-7.29,2.91,14.57,25.36h0s24.41,40.69,24.41,40.69c8.49-4.47,18.14-7.01,28.4-7.01s19.92,2.54,28.4,7.01l24.41-40.68h0s14.57-25.36,14.57-25.36Z"/>
  <path class="cls-2" d="M246.95,112c-5.99-27.33-22.28-50.8-44.6-66.13l-1.51,2.62-.1.04-22.86,38.1c14.7,11.14,24.2,28.78,24.2,48.65,0,30.81-22.83,56.27-52.49,60.43v-38.35c9.23-3.46,15.79-12.36,15.79-22.8,0-13.45-10.9-24.35-24.35-24.35s-24.35,10.9-24.35,24.35c0,10.44,6.57,19.34,15.79,22.8v38.35c-29.66-4.16-52.49-29.62-52.49-60.43,0-19.87,9.5-37.51,24.2-48.65l-22.86-38.1-.1-.04-1.51-2.62c-22.32,15.33-38.62,38.8-44.61,66.13L0,124.27v15.53l33.83,11.82c2.41,15.98,8.32,30.81,16.91,43.7l-14.92,30.95,5.49,5.49,5.49,5.49,30.13-14.53c13.22,9.71,28.71,16.49,45.53,19.39l10.81,30.95h15.53l10.81-30.95c16.82-2.91,32.32-9.69,45.53-19.39l30.13,14.53,5.49-5.49,5.49-5.49-14.92-30.95c8.59-12.89,14.5-27.73,16.91-43.7l33.83-11.82v-15.53l-35.13-12.27Z"/>
</svg>