<?xml version="1.0" encoding="UTF-8"?>
<svg id="Layer_1" data-name="Layer 1" xmlns="http://www.w3.org/2000/svg" viewBox="0 0 7790.83 8663.19">
  <defs>
    <style>
      .cls-1 {
        fill: #2f34a1;
      }

      .cls-1, .cls-2, .cls-3, .cls-4, .cls-5 {
        stroke-width: 0px;
      }

      .cls-2 {
        fill: #fb65f6;
      }

      .cls-3 {
        fill: #5cd0dd;
      }

      .cls-4 {
        fill: #982ca5;
      }

      .cls-5 {
        fill: #9a70fe;
      }
    </style>
  </defs>
  <path class="cls-2" d="M3881.95,2024.14c2.1-3.28,5.5-6.37,6.04-9.89,1.21-7.83,1.24-15.88,1.3-23.85.24-32,.3-64,.47-96,.04-8-.71-16.16.58-23.97,6.33-38.43,4.22-77.14,4.23-115.73.09-458.66-.08-917.33-.13-1375.99,0-34.66-.13-69.34.68-103.99,1.4-59.21,22-111.98,56.8-159.2,16.64-22.58,36.68-42.43,58.73-59.79,24.33-19.15,52.52-31.24,81.67-41.25,25.46-8.74,52.29-9.6,78.47-14.11,6.36-1.1,13.23.42,19.82,1.13,6.61.72,13.15,2.63,19.75,2.81,34.08.9,65.28,12.58,95.75,26.08,20.68,9.16,40.85,19.7,60.48,30.95,38.14,21.85,75.67,44.76,113.6,66.99,21.84,12.8,44.01,25.02,65.92,37.69,39.21,22.67,78.35,45.47,117.51,68.25,10.36,6.03,20.33,12.84,31.04,18.14,46.65,23.1,90.43,51.2,135.45,77.11,45.03,25.92,89.9,52.11,134.94,78,62.37,35.85,124.87,71.47,187.23,107.32,46.2,26.56,92.31,53.25,138.39,80.02,44.93,26.09,89.71,52.43,134.65,78.5,21.89,12.7,43.96,25.11,66.01,37.54,81.24,45.8,161.75,92.84,242.04,140.28,45.88,27.11,92.61,52.76,138.89,79.18,35.87,20.47,71.67,41.06,107.43,61.71,46.15,26.65,92.2,53.46,138.34,80.13,69.21,40,138.52,79.81,207.65,119.95,41.47,24.08,82.54,48.87,124.03,72.91,27.66,16.03,55.95,30.98,83.61,47.01,40.35,23.37,80.31,47.4,120.58,70.91,24.16,14.1,48.69,27.55,72.89,41.59,57.62,33.42,115.05,67.17,172.74,100.48,68.07,39.31,135.41,79.86,204.58,117.28,37.48,20.28,73.94,42.44,110.88,63.72,48.48,27.93,96.82,56.11,145.52,83.67,61.47,34.78,122.55,70.25,181.71,108.81,31.2,20.33,61.14,42.82,90.2,66.14,29.27,23.49,52.24,53.2,73.08,84.24,33.13,49.34,52.86,103.93,64.6,162.14,9.52,47.22,15.25,94.5,15.27,142.63.03,96,.45,192,.8,288,.07,19.97,1.7,39.86,2.86,59.78,2.09,35.83.55,71.9-.02,107.86-.25,15.94-2.68,31.86-2.71,47.79-.44,213.33-.83,426.66-.84,640,0,209.33.43,418.66.72,627.99.03,18.64.11,37.18,3.03,55.8,2.25,14.35,1.33,29.25,1.33,43.9.14,344,.26,688,.29,1031.99.01,177.33-.15,354.66-.29,532-.01,18.64,0,37.2-3.06,55.8-2.14,13.02-1.24,26.58-1.28,39.91-.34,106.67-.53,213.33-.9,320-.06,18.66.44,37.44-1.42,55.96-5.6,55.6-12.77,110.87-30.96,164.29-19.27,56.62-49.71,105.73-91.73,148.08-40.6,40.93-85.99,75.72-134.97,105.77-70.43,43.19-142.67,83.27-214.59,123.9-38.27,21.62-75.95,44.28-114.01,66.28-64.59,37.33-129.35,74.38-193.89,111.79-57.62,33.4-114.94,67.33-172.58,100.7-59.96,34.7-120.19,68.92-180.21,103.52-60.01,34.6-119.82,69.56-179.88,104.07-64.68,37.17-129.67,73.82-194.31,111.06-53.1,30.59-105.8,61.86-158.83,92.58-47.26,27.37-94.8,54.28-142.09,81.6-59.99,34.64-119.83,69.54-179.8,104.22-24.21,14-48.58,27.74-72.93,41.52-8.18,4.63-16.6,8.63-26.47,6.7,1.7-3.53,2.76-7.59,5.2-10.5,15.39-18.38,31.43-36.22,46.6-54.78,29.89-36.55,51.86-77.98,65.75-122.64,17.02-54.74,25.89-111.3,25.83-169-.14-130.66.08-261.32.09-391.98,0-714.64,0-1429.28,0-2143.92,0-450.65.04-901.3-.09-1351.95,0-31.92,1.98-64.03-6.02-95.5-.97-3.82-.91-7.95-.98-11.94-.31-17.4-4.11-34.21-7.11-51.28-15.04-85.72-56.18-157.35-116.41-218.67-32.84-33.43-71.38-60.01-110.65-85.1-35.89-22.93-73.23-43.61-110-65.16-26.43-15.49-52.97-30.79-79.47-46.16-56.46-32.75-112.92-65.48-169.39-98.22-46.09-26.72-92.15-53.52-138.3-80.14-41.54-23.96-83.19-47.72-124.79-71.6-42.74-24.53-85.53-49-128.19-73.67-58.8-34.01-117.45-68.29-176.28-102.26-41.53-23.98-83.37-47.41-124.86-71.45-57.62-33.39-114.9-67.37-172.58-100.64-79.62-45.92-159.58-91.25-239.2-137.16-76.15-43.91-152.04-88.27-228.16-132.24-3.26-1.89-7.64-1.85-11.49-2.71,0,0,.38.16.38.16-2.41-2.1-4.82-4.2-7.23-6.3-2.43-2.52-4.87-5.04-7.3-7.56Z"/>
  <path class="cls-4" d="M3896.09,2037.83c3.86.86,8.23.82,11.49,2.71,76.12,43.97,152.01,88.33,228.16,132.24,79.63,45.91,159.59,91.24,239.2,137.16,57.69,33.27,114.96,67.25,172.58,100.64,41.49,24.04,83.33,47.48,124.86,71.45,58.83,33.96,117.47,68.25,176.28,102.26,42.66,24.67,85.45,49.14,128.19,73.67,41.59,23.87,83.25,47.63,124.79,71.6,46.15,26.62,92.2,53.42,138.3,80.14,56.47,32.74,112.93,65.47,169.39,98.22,26.5,15.37,53.04,30.67,79.47,46.16,36.77,21.55,74.11,42.23,110,65.16,39.27,25.09,77.81,51.67,110.65,85.1,60.24,61.32,101.37,132.94,116.41,218.67,3,17.07,6.8,33.88,7.11,51.28.07,3.99,0,8.12.98,11.94,8,31.47,6.01,63.59,6.02,95.5.13,450.65.09,901.3.09,1351.95,0,714.64.02,1429.28,0,2143.92,0,130.66-.22,261.32-.09,391.98.06,57.71-8.8,114.26-25.83,169-13.89,44.66-35.86,86.09-65.75,122.64-15.17,18.55-31.21,36.39-46.6,54.78-2.44,2.91-3.5,6.97-5.2,10.5,0,0,.14-.41.14-.41-5.12.21-8.03,3.27-9.9,7.67-23.25,15.5-46.1,31.63-69.81,46.39-88.14,54.88-178.43,106.13-268.43,157.87-116.53,66.99-232.7,134.61-349.09,201.84-55.31,31.95-110.84,63.54-166.16,95.49-131.38,75.88-262.68,151.91-394.05,227.8-61.08,35.29-122.42,70.11-183.34,105.66-78.09,45.57-162.53,72.01-251.4,86.27-46.26,7.42-92.56,9.74-139.24,6.95,2.23-8.99,4.88-17.91,6.57-27,1.46-7.83.42-16.35,2.99-23.68,4.53-12.9,5.25-26.01,5.93-39.33.34-6.61.79-13.45,2.76-19.69,4.11-13.02,3.95-26.28,4.05-39.59.13-17.33.29-34.66.3-51.99.26-422.59.66-845.19.7-1267.78.07-683.89-.08-1367.77-.2-2051.66-.03-187.97-.27-375.94-.44-563.9-.02-21.3.4-42.56-5.74-63.42-1.81-6.13-.34-13.23-.38-19.88,3.82-3.94,6.43-8.56,6.6-14.09.43-13.31.83-26.64.84-39.96.03-43.98-.22-87.96-.11-131.94.03-10.63-.65-21.68,1.92-31.8,4.35-17.14,4.16-34.31,4.22-51.6.43-134.6,1.21-269.2,1.13-403.8-.3-517.08-.92-1034.16-1.3-1551.25-.06-77.28.58-154.57.89-231.85Z"/>
  <path class="cls-3" d="M1943.5,7648.62c-6.1-2.56-12.57-4.5-18.26-7.78-63.47-36.62-126.78-73.51-190.23-110.17-23.07-13.33-46.47-26.1-69.58-39.36-52-29.84-103.92-59.8-155.85-89.77-53.08-30.63-106.16-61.26-159.17-92.02-58.77-34.11-117.38-68.48-176.19-102.51-43.82-25.36-87.88-50.29-131.77-75.53-62.36-35.87-124.63-71.9-186.99-107.77-83.15-47.82-166.39-95.5-249.54-143.34-54.27-31.23-108.48-62.58-162.66-93.97-46.11-26.72-92.31-53.28-138.16-80.45-47.01-27.86-93.21-56.94-135.86-91.38-61.58-49.71-107.14-110.89-133.87-185.57-15.32-42.79-23.6-86.94-28.71-132.27-6.75-59.85-6.52-119.7-6.55-179.61-.2-465.27-.11-930.53-.1-1395.79,0-701.23,0-1402.46.04-2103.69,0-27.99.37-55.99.52-83.98.16-29.56,5.49-58.35,14.64-86.27,22.08-67.38,64.48-118.71,125.01-155.28,27.62-16.68,57.66-27.47,88.63-35.85,6.38-1.72,13.12-2.9,19.7-2.94,26.64-.13,53.37-.96,79.9.85,28.14,1.93,54.72,11.68,80.04,23.68,27.68,13.12,55.18,26.83,81.68,42.15,84.19,48.68,167.71,98.52,251.81,147.35,58.76,34.12,118.14,67.15,177.07,100.98,43.91,25.2,87.51,50.92,131.29,76.36,20.74,12.05,41.51,24.03,62.34,35.92,67.11,38.31,134.42,76.26,201.32,114.93,64.59,37.33,128.74,75.43,193.15,113.08,25.3,14.79,50.8,29.25,76.2,43.88,61.2,35.23,122.46,70.34,183.56,105.74,39.19,22.7,78.22,45.7,117.17,68.82,16.03,9.51,31.54,19.9,47.54,29.47,5.59,3.35,11.93,5.44,17.95,8.1,1.04,1.86,1.83,3.82,2.36,5.89-.08,50.64-.25,101.28-.24,151.93.05,1079.84.16,2159.68.16,3239.52,0,319.95-.23,639.91-.43,959.86-.02,30.66-.58,61.32-.85,91.98-.11,12.07-.73,24.02-7.08,34.82Z"/>
  <path class="cls-1" d="M1943.5,7648.62c6.35-10.8,6.97-22.75,7.08-34.82.28-30.66.84-61.32.85-91.98.2-319.95.43-639.91.43-959.86,0-1079.84-.11-2159.68-.16-3239.52,0-50.64.16-101.28.24-151.91,10.86,5,21.97,9.51,32.53,15.06,88.46,46.52,173.2,99.56,260.33,148.43,44.14,24.76,87.63,50.68,131.45,76.01,46.12,26.67,92.28,53.28,138.44,79.88,42.7,24.6,85.42,49.18,128.16,73.72,41.58,23.88,83.24,47.63,124.8,71.54,62.34,35.87,124.67,71.75,186.93,107.76,59.96,34.67,119.83,69.5,179.73,104.28,39.17,22.74,78.28,45.56,117.48,68.23,42.66,24.67,85.4,49.21,128.09,73.82,61.16,35.26,122.37,70.41,183.44,105.83,55.33,32.09,109.94,65.1,159.69,105.85,30.18,24.72,57.03,52.21,80.05,83.33,17.4,23.52,33.41,48.07,45.41,75.08,19.11,43.02,32.11,87.41,33.42,134.78.03,6.65-1.43,13.75.38,19.88,6.14,20.86,5.72,42.12,5.74,63.42.16,187.97.4,375.94.44,563.9.12,683.89.26,1367.77.2,2051.66-.04,422.59-.44,845.19-.7,1267.78-.01,17.33-.17,34.66-.3,51.99-.1,13.32.05,26.58-4.05,39.59-1.97,6.24-2.42,13.08-2.76,19.69-.68,13.32-1.4,26.43-5.93,39.33-2.57,7.33-1.53,15.86-2.99,23.68-1.7,9.09-4.35,18.01-6.57,27-37.65,3.54-74.22-4.44-110.84-10.99-87.36-15.63-168.38-47.91-244.91-92.7-120.55-70.55-241.65-140.15-362.57-210.06-172.75-99.87-345.5-199.73-518.33-299.45-217.76-125.65-435.61-251.16-653.41-376.75-11.48-6.62-23.76-12.18-31.8-23.47Z"/>
  <path class="cls-5" d="M3881.91,4494.11c-1.3-47.37-14.3-91.76-33.42-134.78-12-27-28.01-51.56-45.41-75.08-23.02-31.12-49.87-58.61-80.05-83.33-49.75-40.75-104.36-73.76-159.69-105.85-61.07-35.41-122.28-70.57-183.44-105.83-42.69-24.61-85.43-49.15-128.09-73.82-39.2-22.67-78.32-45.5-117.48-68.23-59.9-34.77-119.77-69.6-179.73-104.28-62.26-36.01-124.59-71.89-186.93-107.76-41.56-23.91-83.22-47.66-124.8-71.54-42.74-24.54-85.46-49.12-128.16-73.72-46.16-26.6-92.32-53.21-138.44-79.88-43.82-25.33-87.31-51.25-131.45-76.01-87.13-48.86-171.88-101.91-260.33-148.43-10.56-5.55-21.67-10.06-32.53-15.06-.53-2.08-1.32-4.04-2.36-5.9.62-15.94,1.78-31.89,1.8-47.83.38-231.77.78-463.55.83-695.32.07-310.36-.18-620.73-.25-931.09,0-27.97.24-55.94.45-83.92.11-16,2.28-31.67,5.14-47.5,15.36-84.99,61.43-149.34,132.49-195.93,36.03-23.62,76.59-36.95,120.23-38.75,10.64-.44,21.31-.21,31.96-.43,42.12-.87,81.92,9.54,119.8,26.73,27.85,12.63,55.15,26.73,81.68,41.94,68.14,39.06,135.6,79.29,203.55,118.69,79.46,46.07,159.18,91.69,238.71,137.64,91.06,52.61,182,105.41,273.05,158.03,42.64,24.64,85.46,49,128.15,73.56,62.31,35.84,124.58,71.75,186.87,107.63,80.75,46.51,161.55,92.93,242.22,139.58,55.31,31.99,110.44,64.3,165.66,96.49,2.46,2.54,4.89,5.05,7.32,7.56,2.41,2.1,4.82,4.2,7.23,6.31,0,0-.38-.16-.38-.16-.31,77.29-.95,154.57-.89,231.86.37,517.08,1,1034.16,1.3,1551.25.08,134.6-.7,269.2-1.13,403.8-.06,17.29.13,34.46-4.22,51.6-2.57,10.12-1.89,21.17-1.92,31.8-.11,43.98.15,87.96.11,131.94,0,13.32-.41,26.64-.84,39.96-.18,5.53-2.78,10.15-6.6,14.09Z"/>
  <path class="cls-2" d="M5686.86,7733.76c1.87-4.41,4.78-7.46,9.9-7.67-.83,5.74-4.86,7.36-9.9,7.67Z"/>
  <path class="cls-4" d="M3896.47,2038c-2.41-2.11-4.82-4.21-7.23-6.31,2.41,2.11,4.82,4.21,7.23,6.31Z"/>
</svg>